HIERARCHY
ROOT Hips
{
	OFFSET -3.958830 18.904000 13.208200
	CHANNELS 6 Xposition Yposition Zposition Zrotation Yrotation Xrotation 
	JOINT LHipJoint
	{
		OFFSET 0.000000 0.000000 0.000000
		CHANNELS 3 Zrotation Yrotation Xrotation
		JOINT LeftUpLeg
		{
			OFFSET 1.800000 -1.400000 0.085000
			CHANNELS 3 Zrotation Yrotation Xrotation
			JOINT LeftLeg
			{
				OFFSET 2.215000 -6.000000 0.000000
				CHANNELS 3 Zrotation Yrotation Xrotation
				JOINT LeftFoot
				{
					OFFSET 2.500000 -6.900000 0.000000
					CHANNELS 3 Zrotation Yrotation Xrotation
					JOINT LeftToeBase
					{
						OFFSET 0.200000 -0.500000 1.950000
						CHANNELS 3 Zrotation Yrotation Xrotation
						End Site
						{
							OFFSET 0.000000 0.000000 0.000000
						}
					}
				}
			}
		}
	}
	JOINT RHipJoint
	{
		OFFSET 0.000000 0.000000 0.000000
		CHANNELS 3 Zrotation Yrotation Xrotation
		JOINT RightUpLeg
		{
			OFFSET -1.800000 -1.400000 0.085000
			CHANNELS 3 Zrotation Yrotation Xrotation
			JOINT RightLeg
			{
				OFFSET -2.215000 -6.000000 0.000000
				CHANNELS 3 Zrotation Yrotation Xrotation
				JOINT RightFoot
				{
					OFFSET -2.500000 -6.900000 0.000000
					CHANNELS 3 Zrotation Yrotation Xrotation
					JOINT RightToeBase
					{
						OFFSET -0.200000 -0.500000 1.950000
						CHANNELS 3 Zrotation Yrotation Xrotation
						End Site
						{
							OFFSET 0.000000 0.000000 0.000000
						}
					}
				}
			}
		}
	}
	JOINT LowerBack
	{
		OFFSET 0.000000 0.000000 0.000000
		CHANNELS 3 Zrotation Yrotation Xrotation
		JOINT Spine
		{
			OFFSET -0.087000 1.940000 -0.288900
			CHANNELS 3 Zrotation Yrotation Xrotation
			JOINT Spine1
			{
				OFFSET 0.000000 1.950000 0.060000
				CHANNELS 3 Zrotation Yrotation Xrotation
				JOINT Neck
				{
					OFFSET 0.000000 0.000000 0.000000
					CHANNELS 3 Zrotation Yrotation Xrotation
					JOINT Neck1
					{
						OFFSET 0.000000 1.600000 0.340000
						CHANNELS 3 Zrotation Yrotation Xrotation
						JOINT Head
						{
							OFFSET 0.000000 1.667000 -0.240000
							CHANNELS 3 Zrotation Yrotation Xrotation
							End Site
							{
								OFFSET 0.000000 0.000000 0.000000
							}
						}
					}
				}
				JOINT LeftShoulder
				{
					OFFSET 0.000000 0.000000 0.000000
					CHANNELS 3 Zrotation Yrotation Xrotation
					JOINT LeftArm
					{
						OFFSET 2.700000 1.550000 -0.730000
						CHANNELS 3 Zrotation Yrotation Xrotation
						JOINT LeftForeArm
						{
							OFFSET 5.450000 0.000000 0.000000
							CHANNELS 3 Zrotation Yrotation Xrotation
							JOINT LeftHand
							{
								OFFSET 3.450000 0.000000 0.000000
								CHANNELS 3 Zrotation Yrotation Xrotation
								JOINT LeftHandIndex1
								{
									OFFSET 0.750000 0.000000 0.000000
									CHANNELS 3 Zrotation Yrotation Xrotation
									End Site
									{
										OFFSET 0.000000 0.000000 0.000000
									}
								}
							}
						}
					}
				}
				JOINT RightShoulder
				{
					OFFSET 0.000000 0.000000 0.000000
					CHANNELS 3 Zrotation Yrotation Xrotation
					JOINT RightArm
					{
						OFFSET -2.700000 1.550000 -0.730000
						CHANNELS 3 Zrotation Yrotation Xrotation
						JOINT RightForeArm
						{
							OFFSET -5.450000 0.000000 0.000000
							CHANNELS 3 Zrotation Yrotation Xrotation
							JOINT RightHand
							{
								OFFSET -3.450000 0.000000 0.000000
								CHANNELS 3 Zrotation Yrotation Xrotation
								JOINT RightHandIndex1
								{
									OFFSET -0.750000 0.000000 0.000000
									CHANNELS 3 Zrotation Yrotation Xrotation
									End Site
									{
										OFFSET 0.000000 0.000000 0.000000
									}
								}
							}
						}
					}
				}
			}
		}
	}
}
MOTION
Frames: 8
Frame Time: 0.016667
0.684280 17.099660 -7.076370 3.015325 -20.878458 -1.898757 -14.415090 11.872194 3.918426 -1.390092 -5.817241 -28.698293 -10.141827 8.194071 26.391999 -0.264967 4.854956 2.830227 0.436680 0.255060 0.336240 18.958863 -11.912908 2.513959 -7.081532 2.263694 -12.829373 6.790716 -6.967967 24.319704 -0.333628 -4.559278 2.860297 0.179260 0.148160 0.178920 -5.673872 1.771208 -7.238278 25.014779 2.159629 11.145258 -15.191994 6.304952 11.381721 5.006343 -4.082395 -8.722077 -11.616962 4.891900 52.685093 -8.201410 2.796270 -1.486670 -3.630527 3.401117 -0.260815 -16.596293 -8.544593 -1.163932 24.447684 -11.285902 -2.595768 -4.102255 2.928509 0.255440 0.193730 -0.041560 0.146510 -7.611190 0.440078 5.858294 8.519530 9.503768 -0.835605 -21.182589 12.506325 -2.202155 2.339202 -1.648269 -0.059350 0.146110 -0.070020 -0.166000 
0.679160 17.089570 -7.086990 3.075605 -21.130403 -2.685053 -14.426654 11.887086 3.987822 -1.074971 -5.901463 -29.225941 -10.182185 8.631304 27.975832 -0.196846 5.108314 2.719505 0.470750 0.298080 0.362400 18.933962 -11.922986 2.510398 -7.181480 2.212943 -12.145375 6.709973 -6.984655 24.550171 -0.368144 -4.599981 2.833145 0.191220 0.108630 0.182120 -5.610285 1.730567 -7.328230 24.523566 2.177916 12.585235 -14.540171 6.392044 11.065042 4.907221 -3.936931 -8.703082 -11.146295 4.920967 52.957295 -7.758820 2.903230 -2.164030 -3.496242 3.399521 -0.242856 -16.800265 -8.614149 -1.234467 24.341624 -11.331324 -2.591803 -4.065847 2.955205 0.264280 0.162010 -0.009120 0.150380 -7.561745 0.547074 5.631143 10.388990 10.015158 -1.653310 -25.743024 13.648141 -3.087622 2.353400 -1.719445 -0.034090 0.126980 -0.097320 -0.163050 
0.675370 17.059700 -7.117470 2.973048 -21.457834 -3.982425 -14.467379 11.899035 4.147467 -0.371921 -6.081113 -30.660593 -10.200857 9.517501 31.058794 -0.110091 5.695906 2.489979 0.474560 0.303540 0.378600 18.876246 -11.894837 2.512410 -7.126809 2.396388 -11.497560 6.679235 -7.210449 26.129502 -0.408201 -4.792621 2.759268 0.195960 0.086420 0.176750 -5.444824 1.614021 -7.527212 23.613874 2.185106 15.577200 -13.092384 6.535524 10.013819 4.783862 -3.685937 -8.321186 -10.001783 4.606993 52.171683 -7.982060 3.271620 -3.086860 -3.206346 3.979356 -0.643650 -17.480077 -9.330256 -1.267085 24.511614 -11.366571 -2.638746 -4.072528 2.954920 0.277540 0.149560 0.000810 0.136430 -7.679427 0.322935 5.095828 14.583544 11.126642 -3.224934 -35.269717 16.457841 -5.460027 2.322974 -1.821934 -0.037610 0.123870 -0.097800 -0.176800 
0.663950 17.024840 -7.144510 2.726150 -22.163989 -5.433309 -14.508675 11.914960 4.268877 0.449183 -5.985764 -31.990479 -10.006927 10.483839 34.221127 -0.008745 6.336059 2.252095 0.488790 0.317500 0.381010 18.822271 -11.865944 2.528707 -6.828734 2.656761 -10.593463 6.672659 -7.452188 27.924596 -0.471837 -5.043880 2.673498 0.202630 0.080060 0.184240 -5.290873 1.529889 -7.692855 22.968404 2.475828 18.522216 -11.288284 6.908882 9.055857 4.417833 -3.352137 -7.900124 -8.668934 4.351855 51.385735 -7.470110 3.374570 -3.992380 -3.731579 4.272019 -1.080197 -17.019256 -9.674537 -1.382731 23.971218 -11.770329 -2.636454 -4.065397 2.967406 0.295690 0.139290 0.012970 0.143500 -6.495805 0.323238 4.663336 18.379742 11.269864 -4.944822 -48.039370 23.055506 -10.435973 2.205163 -1.872807 -0.036170 0.121460 -0.103230 -0.178330 
0.646340 16.980690 -7.163270 2.074024 -22.584597 -6.570312 -14.540276 11.921143 4.352329 1.288483 -5.810783 -33.390308 -8.913621 11.223483 37.756945 0.088683 6.979534 2.016804 0.471530 0.292620 0.380320 18.791297 -11.824651 2.554857 -6.161111 2.832760 -9.833577 6.669837 -7.635445 29.276173 -0.512017 -5.239737 2.614261 0.187840 0.077640 0.186160 -5.192367 1.479690 -7.810677 22.945287 2.667038 20.769218 -9.849554 7.152115 8.199251 4.080707 -2.966727 -7.560270 -7.359107 4.086901 51.201343 -7.831790 3.836060 -4.094080 -4.125575 4.730522 -1.711505 -16.518390 -10.441495 -1.510591 23.764125 -11.521752 -2.569328 -4.092751 2.960098 0.301990 0.143050 0.010010 0.131620 -5.476284 0.079736 4.657177 23.905188 11.656434 -5.946014 -62.454220 28.830351 -17.877555 2.096346 -1.846249 -0.043130 0.114990 -0.092720 -0.188290 
0.623270 16.931550 -7.173750 1.652418 -23.710526 -7.676002 -14.582596 11.958822 4.408188 1.853485 -5.390681 -34.644255 -7.701830 11.954574 41.053329 0.207780 7.573904 1.796583 0.486120 0.304350 0.401780 18.746462 -11.767136 2.591804 -5.713016 3.318792 -9.451830 6.693266 -7.863656 31.424168 -0.583326 -5.513896 2.505332 0.186440 0.047040 0.201340 -5.063199 1.397757 -7.911684 22.570283 3.277140 23.085544 -7.963720 7.735033 7.288475 3.574710 -2.767114 -7.105920 -6.424698 3.998037 50.695476 -8.287920 4.359600 -4.629000 -4.762853 5.740205 -2.580211 -16.426068 -10.897685 -1.833741 23.741648 -11.990352 -2.589314 -4.091681 2.999774 0.305680 0.128040 0.031560 0.130340 -3.947765 -0.366298 4.791113 29.324502 12.417847 -6.001979 -78.729220 33.168179 -28.491703 2.019298 -1.799733 -0.025580 0.085490 -0.109400 -0.191620 
0.600390 16.880830 -7.177050 1.256274 -25.083449 -8.676602 -14.630025 12.020309 4.426267 2.315710 -4.856875 -35.764217 -6.177972 12.503699 44.192181 0.302267 8.119148 1.598068 0.492420 0.306460 0.415690 18.701388 -11.677626 2.633910 -5.431006 3.880498 -9.101130 7.080019 -8.245735 33.536314 -0.658751 -5.823368 2.395039 0.184010 0.020470 0.202310 -4.935315 1.245989 -7.983671 22.301544 3.960707 25.082731 -5.940333 8.377580 6.639036 2.895669 -2.830769 -6.728633 -6.281859 3.991927 50.017426 -8.953130 4.612090 -5.464800 -5.810266 6.606950 -3.351431 -16.243756 -10.717851 -2.291987 24.363109 -13.380478 -2.771397 -4.076453 3.027604 0.319830 0.111290 0.045430 0.125350 -1.699639 -0.559606 5.129371 34.109959 12.799115 -5.245515 -95.663601 35.803965 -42.438365 1.967147 -1.738727 -0.022300 0.073400 -0.116140 -0.200590 
0.579860 16.839330 -7.175470 0.853765 -26.073388 -9.982885 -14.686201 12.160182 4.400192 2.417116 -4.387589 -36.353598 -4.211699 12.617577 47.117750 0.381493 8.550224 1.436998 0.494660 0.293870 0.423200 18.644691 -11.562933 2.664435 -5.272396 4.269228 -8.197294 7.630549 -8.723671 35.258082 -0.736241 -6.139446 2.278792 0.171540 -0.010040 0.208710 -4.762664 0.913332 -8.034482 22.155278 4.463160 27.341952 -3.630320 8.983068 5.982976 2.007334 -3.256281 -6.421037 -7.176870 4.110728 49.630073 -9.362280 4.268670 -6.064240 -6.849928 7.392452 -4.054069 -16.427941 -10.798209 -2.571158 24.377172 -14.445928 -2.878533 -4.053433 3.061719 0.336330 0.086840 0.054250 0.112140 0.919973 -0.374654 5.566005 38.096588 12.781540 -4.082581 -111.156345 36.747618 -58.542197 1.971264 -1.744638 -0.013080 0.048490 -0.112420 -0.208760 
